M48
; DRILL file {KiCad (5.1.0)-1} date 31/05/2019 13:04:00
; FORMAT={-:-/ absolute / metric / decimal}
; #@! TF.CreationDate,2019-05-31T13:04:00+02:00
; #@! TF.GenerationSoftware,Kicad,Pcbnew,(5.1.0)-1
; #@! TF.FileFunction,Plated,1,2,PTH
FMAT,2
METRIC
T1C0.300
T2C0.400
T3C0.500
T4C0.550
T5C0.600
T6C0.800
T7C0.850
T8C0.900
T9C1.000
T10C1.016
%
G90
G05
T1
X71.7Y-97.6
T2
X50.525Y-82.0
X50.7Y-149.375
X51.4Y-123.4
X52.1Y-82.0
X52.6Y-101.1
X52.75Y-100.25
X52.75Y-102.0
X53.02Y-123.05
X53.123Y-122.106
X53.794Y-97.448
X53.85Y-96.6
X53.9Y-81.15
X53.9Y-82.0
X55.643Y-123.043
X56.4Y-81.15
X56.4Y-82.0
X56.4Y-100.25
X56.4Y-101.1
X56.4Y-102.0
X56.481Y-97.417
X56.5Y-96.3
X56.6Y-107.6
X57.5Y-90.0
X57.6Y-65.5
X57.75Y-123.5
X58.5Y-106.25
X58.75Y-108.75
X59.0Y-101.3
X59.361Y-103.401
X59.787Y-139.188
X59.903Y-89.499
X59.96Y-107.02
X59.973Y-115.527
X60.0Y-101.3
X60.5Y-116.2
X60.554Y-103.401
X60.762Y-91.012
X60.975Y-101.725
X61.0Y-108.4
X61.0Y-111.5
X61.5Y-96.0
X61.5Y-100.8
X61.576Y-102.326
X61.601Y-103.201
X61.75Y-125.5
X62.1Y-114.1
X62.35Y-107.2
X62.795Y-114.807
X63.0Y-96.167
X63.101Y-99.651
X63.2Y-106.0
X63.25Y-95.25
X64.277Y-99.346
X64.553Y-100.15
X65.0Y-109.25
X65.575Y-121.425
X66.0Y-66.5
X66.086Y-65.0
X66.17Y-136.094
X66.5Y-106.9
X66.777Y-120.223
X66.8Y-108.3
X67.595Y-67.635
X67.9Y-148.2
X68.049Y-98.799
X68.253Y-95.57
X68.375Y-102.25
X68.435Y-122.75
X69.4Y-65.1
X69.447Y-96.897
X70.175Y-90.263
X70.25Y-89.0
X70.839Y-78.369
X71.0Y-102.0
X71.0Y-51.0
X71.1Y-122.5
X71.2Y-94.1
X71.476Y-79.006
X71.75Y-89.111
X71.9Y-93.2
X72.046Y-95.146
X72.25Y-111.25
X72.25Y-135.75
X72.4Y-106.6
X73.4Y-87.9
X73.5Y-91.75
X74.479Y-88.975
X74.791Y-91.309
X75.074Y-95.517
X75.088Y-96.388
X75.359Y-99.578
X75.9Y-104.05
X76.319Y-96.503
X76.356Y-97.352
X76.369Y-94.85
X76.675Y-103.7
X76.8Y-91.8
X77.0Y-98.3
X77.152Y-95.533
X77.311Y-96.571
X79.0Y-128.5
X79.25Y-136.5
X81.926Y-111.226
X82.85Y-75.255
X83.2Y-96.8
X85.23Y-119.77
X86.7Y-138.0
X87.8Y-107.8
X91.2Y-51.0
X92.25Y-114.25
X92.75Y-112.75
X93.2Y-76.8
X94.0Y-88.5
X94.4Y-68.4
X94.6Y-74.4
X95.098Y-78.91
X95.4Y-73.8
X95.654Y-93.746
X95.735Y-79.473
X96.0Y-63.25
X96.0Y-82.25
X96.211Y-69.766
X96.745Y-103.73
X96.75Y-92.5
X97.21Y-70.4
X98.25Y-109.0
X98.285Y-111.778
X98.35Y-117.65
X99.0Y-71.4
X99.4Y-77.0
X99.6Y-64.05
X99.8Y-73.4
X100.2Y-76.4
X100.55Y-107.5
X100.553Y-126.705
X100.608Y-125.455
X101.0Y-128.5
X101.23Y-100.35
X101.5Y-99.5
X101.95Y-70.75
X102.5Y-107.5
X103.667Y-97.277
X104.19Y-98.464
X104.4Y-65.4
X105.208Y-82.535
X105.262Y-62.738
X106.075Y-61.925
X106.717Y-101.872
X107.0Y-144.0
X107.0Y-73.0
X107.275Y-78.5
X107.925Y-94.0
X108.0Y-103.5
X108.125Y-108.75
X108.292Y-126.271
X108.409Y-75.5
X108.5Y-148.75
X108.568Y-124.368
X108.7Y-107.6
X108.7Y-117.25
X108.8Y-51.0
X108.994Y-101.643
X109.0Y-125.8
X113.02Y-97.0
X113.901Y-90.834
X114.0Y-89.0
X114.55Y-75.2
X114.641Y-76.14
X115.5Y-75.25
X115.564Y-136.436
X115.6Y-109.8
X116.2Y-99.0
X116.507Y-137.329
X116.6Y-100.2
X118.0Y-130.0
X118.45Y-104.0
X120.701Y-116.799
X120.8Y-122.5
X120.8Y-123.7
X121.475Y-102.5
X121.475Y-102.5
X121.475Y-104.5
X121.475Y-106.5
X122.359Y-107.841
X122.516Y-105.583
X123.15Y-91.574
X123.5Y-97.0
X123.6Y-95.8
X123.759Y-109.241
X124.0Y-119.9
X124.2Y-116.16
X124.491Y-107.709
X124.718Y-109.737
X125.0Y-113.5
X125.55Y-91.5
X125.55Y-95.358
X126.3Y-100.6
X127.25Y-100.701
X127.75Y-97.25
X128.6Y-132.0
X128.677Y-124.986
X128.963Y-126.619
X129.482Y-131.094
X130.05Y-113.4
X130.299Y-116.77
X131.2Y-101.0
X131.25Y-92.25
X131.3Y-119.25
X131.75Y-97.25
X131.75Y-125.85
X131.826Y-112.626
X131.958Y-130.537
X132.472Y-97.778
X132.5Y-101.65
X132.5Y-102.5
X132.5Y-103.45
X132.508Y-106.921
X132.89Y-107.68
X133.0Y-105.0
X134.2Y-130.6
X135.969Y-128.425
X136.0Y-108.0
X136.4Y-131.8
X136.43Y-134.6
X136.5Y-110.25
X137.058Y-101.894
X137.207Y-96.949
X137.5Y-124.551
X137.75Y-100.5
X137.8Y-108.5
X137.8Y-105.96
X138.0Y-126.8
X138.0Y-132.8
X138.1Y-110.251
X138.4Y-52.3
X138.4Y-53.7
X138.679Y-97.571
X139.275Y-117.225
X140.4Y-126.8
X140.732Y-104.55
X140.96Y-102.904
X141.0Y-102.0
X141.025Y-103.752
X141.5Y-111.0
X141.567Y-105.053
X141.8Y-124.6
X142.03Y-134.029
X142.48Y-132.739
X142.682Y-113.714
X142.999Y-94.999
X143.6Y-95.6
X143.743Y-102.152
X143.8Y-100.4
X143.8Y-101.25
X143.8Y-103.0
X143.8Y-103.9
X144.2Y-132.1
X144.64Y-93.16
X145.4Y-93.8
X145.951Y-75.701
X146.0Y-77.5
X146.1Y-101.25
X146.1Y-100.4
X146.2Y-103.3
X146.25Y-102.25
X146.75Y-71.0
X146.8Y-104.138
X147.867Y-69.883
X148.2Y-85.4
X148.425Y-107.5
X148.775Y-108.4
X149.125Y-90.049
X149.15Y-145.05
X149.424Y-88.576
T6
X68.37Y-103.75
X73.25Y-103.75
X117.5Y-101.5
X117.5Y-106.38
X96.0Y-58.96
X96.0Y-61.5
T8
X148.0Y-128.46
X148.0Y-131.0
X92.5Y-59.035
X92.5Y-61.575
X114.0Y-128.46
X114.0Y-131.0
X148.0Y-118.46
X148.0Y-121.0
X105.0Y-137.5
X107.54Y-137.5
X148.0Y-54.46
X148.0Y-57.0
X114.0Y-118.46
X114.0Y-121.0
X114.0Y-54.46
X114.0Y-57.0
X130.0Y-132.46
X130.0Y-135.0
X130.0Y-125.46
X130.0Y-128.0
X91.5Y-56.5
X94.0Y-51.5
X96.5Y-56.5
X130.0Y-118.46
X130.0Y-121.0
X114.0Y-139.46
X114.0Y-142.0
X148.0Y-139.46
X148.0Y-142.0
X105.0Y-112.5
X107.54Y-112.5
X130.0Y-139.46
X130.0Y-142.0
X84.0Y-106.0
X84.0Y-108.54
T9
X52.5Y-72.5
X52.5Y-75.0
X52.5Y-77.5
X86.3Y-72.5
X86.3Y-75.0
X86.3Y-77.5
X66.8Y-80.4
X66.8Y-82.94
X69.34Y-80.4
X69.34Y-82.94
X71.88Y-80.4
X71.88Y-82.94
X112.5Y-72.5
X112.5Y-75.0
X112.5Y-77.5
X128.86Y-114.2
X131.4Y-114.2
X125.8Y-115.66
X125.8Y-118.2
X107.5Y-54.0
X107.5Y-56.5
X107.5Y-59.0
X87.0Y-98.96
X87.0Y-101.5
X147.5Y-87.5
X147.5Y-90.0
X147.5Y-92.5
X116.71Y-111.5
X116.71Y-114.04
X116.71Y-116.58
X119.25Y-111.5
X119.25Y-114.04
X119.25Y-116.58
X112.5Y-87.5
X112.5Y-90.0
X112.5Y-92.5
X74.6Y-106.86
X74.6Y-109.4
X62.75Y-78.63
X62.75Y-81.17
X62.75Y-83.71
X62.75Y-86.25
X107.5Y-87.5
X107.5Y-90.0
X107.5Y-92.5
X81.0Y-98.96
X81.0Y-101.5
X84.0Y-98.96
X84.0Y-101.5
X113.75Y-98.75
X113.75Y-101.29
X113.75Y-103.83
X113.75Y-106.37
X113.75Y-108.91
X113.75Y-111.45
X86.3Y-87.5
X86.3Y-90.0
X86.3Y-92.5
X52.5Y-87.5
X52.5Y-90.0
X52.5Y-92.5
X147.5Y-72.5
X147.5Y-75.0
X147.5Y-77.5
X122.8Y-115.66
X122.8Y-118.2
X83.0Y-85.88
X83.0Y-88.42
X83.0Y-90.96
X83.0Y-93.5
X77.5Y-106.86
X77.5Y-109.4
T10
X128.75Y-66.22
X128.75Y-68.76
X128.75Y-71.3
X128.75Y-73.84
X128.75Y-76.38
X128.75Y-78.92
X128.75Y-81.46
X128.75Y-84.0
X131.29Y-66.22
X131.29Y-68.76
X131.29Y-71.3
X131.29Y-73.84
X131.29Y-76.38
X131.29Y-78.92
X131.29Y-81.46
X131.29Y-84.0
X102.96Y-69.5
X102.96Y-72.04
X102.96Y-74.58
X102.96Y-77.12
X102.96Y-79.66
X105.5Y-69.5
X105.5Y-72.04
X105.5Y-74.58
X105.5Y-77.12
X105.5Y-79.66
X68.3Y-53.62
X68.3Y-56.16
X68.3Y-58.7
X68.3Y-61.24
X68.3Y-63.78
X68.3Y-66.32
X68.3Y-68.86
X68.3Y-71.4
X70.84Y-53.62
X70.84Y-56.16
X70.84Y-58.7
X70.84Y-61.24
X70.84Y-63.78
X70.84Y-66.32
X70.84Y-68.86
X70.84Y-71.4
T3
G00X124.92Y-134.2
M15
G01X124.92Y-135.8
M16
G05
G00X73.83Y-145.8
M15
G01X73.83Y-144.2
M16
G05
G00X94.2Y-101.08
M15
G01X95.8Y-101.08
M16
G05
G00X135.08Y-145.8
M15
G01X135.08Y-144.2
M16
G05
G00X73.83Y-125.8
M15
G01X73.83Y-124.2
M16
G05
G00X124.92Y-123.95
M15
G01X124.92Y-125.55
M16
G05
G00X64.92Y-114.2
M15
G01X64.92Y-115.8
M16
G05
G00X105.8Y-148.92
M15
G01X104.2Y-148.92
M16
G05
G00X135.08Y-135.8
M15
G01X135.08Y-134.2
M16
G05
G00X95.8Y-123.92
M15
G01X94.2Y-123.92
M16
G05
G00X64.92Y-124.2
M15
G01X64.92Y-125.8
M16
G05
G00X95.8Y-148.92
M15
G01X94.2Y-148.92
M16
G05
G00X64.895Y-144.2
M15
G01X64.895Y-145.8
M16
G05
G00X73.83Y-135.8
M15
G01X73.83Y-134.2
M16
G05
G00X105.8Y-123.92
M15
G01X104.2Y-123.92
M16
G05
G00X104.2Y-126.08
M15
G01X105.8Y-126.08
M16
G05
G00X124.92Y-144.2
M15
G01X124.92Y-145.8
M16
G05
G00X94.2Y-126.08
M15
G01X95.8Y-126.08
M16
G05
G00X135.08Y-126.05
M15
G01X135.08Y-124.45
M16
G05
G00X64.895Y-134.2
M15
G01X64.895Y-135.8
M16
G05
G00X73.83Y-115.8
M15
G01X73.83Y-114.2
M16
G05
T4
G00X52.225Y-62.625
M15
G01X52.875Y-62.625
M16
G05
G00X52.225Y-70.375
M15
G01X52.875Y-70.375
M16
G05
T5
G00X94.3Y-109.38
M15
G01X95.7Y-109.38
M16
G05
G00X94.6Y-112.48
M15
G01X95.4Y-112.48
M16
G05
G00X143.38Y-145.7
M15
G01X143.38Y-144.3
M16
G05
G00X146.48Y-145.4
M15
G01X146.48Y-144.6
M16
G05
G00X82.13Y-125.7
M15
G01X82.13Y-124.3
M16
G05
G00X85.23Y-125.4
M15
G01X85.23Y-124.6
M16
G05
G00X113.52Y-124.35
M15
G01X113.52Y-125.15
M16
G05
G00X116.62Y-124.05
M15
G01X116.62Y-125.45
M16
G05
G00X53.52Y-114.6
M15
G01X53.52Y-115.4
M16
G05
G00X56.62Y-114.3
M15
G01X56.62Y-115.7
M16
G05
G00X105.4Y-137.52
M15
G01X104.6Y-137.52
M16
G05
G00X105.7Y-140.62
M15
G01X104.3Y-140.62
M16
G05
G00X143.38Y-135.7
M15
G01X143.38Y-134.3
M16
G05
G00X146.48Y-135.4
M15
G01X146.48Y-134.6
M16
G05
G00X95.4Y-112.52
M15
G01X94.6Y-112.52
M16
G05
G00X95.7Y-115.62
M15
G01X94.3Y-115.62
M16
G05
G00X53.52Y-124.6
M15
G01X53.52Y-125.4
M16
G05
G00X56.62Y-124.3
M15
G01X56.62Y-125.7
M16
G05
G00X95.4Y-137.52
M15
G01X94.6Y-137.52
M16
G05
G00X95.7Y-140.62
M15
G01X94.3Y-140.62
M16
G05
G00X53.495Y-144.6
M15
G01X53.495Y-145.4
M16
G05
G00X56.595Y-144.3
M15
G01X56.595Y-145.7
M16
G05
G00X82.13Y-135.7
M15
G01X82.13Y-134.3
M16
G05
G00X85.23Y-135.4
M15
G01X85.23Y-134.6
M16
G05
G00X105.4Y-112.52
M15
G01X104.6Y-112.52
M16
G05
G00X105.7Y-115.62
M15
G01X104.3Y-115.62
M16
G05
G00X104.3Y-134.38
M15
G01X105.7Y-134.38
M16
G05
G00X104.6Y-137.48
M15
G01X105.4Y-137.48
M16
G05
G00X113.52Y-144.6
M15
G01X113.52Y-145.4
M16
G05
G00X116.62Y-144.3
M15
G01X116.62Y-145.7
M16
G05
G00X94.3Y-134.38
M15
G01X95.7Y-134.38
M16
G05
G00X94.6Y-137.48
M15
G01X95.4Y-137.48
M16
G05
G00X143.38Y-125.95
M15
G01X143.38Y-124.55
M16
G05
G00X146.48Y-125.65
M15
G01X146.48Y-124.85
M16
G05
G00X53.495Y-134.6
M15
G01X53.495Y-135.4
M16
G05
G00X56.595Y-134.3
M15
G01X56.595Y-135.7
M16
G05
G00X82.13Y-115.7
M15
G01X82.13Y-114.3
M16
G05
G00X85.23Y-115.4
M15
G01X85.23Y-114.6
M16
G05
G00X113.52Y-134.6
M15
G01X113.52Y-135.4
M16
G05
G00X116.62Y-134.3
M15
G01X116.62Y-135.7
M16
G05
G00X82.13Y-145.7
M15
G01X82.13Y-144.3
M16
G05
G00X85.23Y-145.4
M15
G01X85.23Y-144.6
M16
G05
T7
G00X56.075Y-62.775
M15
G01X56.625Y-62.775
M16
G05
G00X56.075Y-70.225
M15
G01X56.625Y-70.225
M16
G05
T9
G00X60.55Y-55.2
M15
G01X59.25Y-55.2
M16
G05
G00X60.55Y-59.9
M15
G01X59.25Y-59.9
M16
G05
G00X60.55Y-64.6
M15
G01X59.25Y-64.6
M16
G05
G00X125.3Y-56.65
M15
G01X125.3Y-55.35
M16
G05
G00X130.0Y-56.65
M15
G01X130.0Y-55.35
M16
G05
G00X134.7Y-56.65
M15
G01X134.7Y-55.35
M16
G05
T0
M30
