M48
; DRILL file {KiCad (5.1.0)-1} date 31/05/2019 13:04:00
; FORMAT={-:-/ absolute / metric / decimal}
; #@! TF.CreationDate,2019-05-31T13:04:00+02:00
; #@! TF.GenerationSoftware,Kicad,Pcbnew,(5.1.0)-1
; #@! TF.FileFunction,NonPlated,1,2,NPTH
FMAT,2
METRIC
T1C0.800
T2C2.000
%
G90
G05
T1
X55.3Y-64.0
X55.3Y-69.0
T2
G00X59.0Y-70.6
M15
G01X60.0Y-70.6
M16
G05
G00X59.0Y-79.4
M15
G01X60.0Y-79.4
M16
G05
G00X79.8Y-70.6
M15
G01X78.8Y-70.6
M16
G05
G00X79.8Y-79.4
M15
G01X78.8Y-79.4
M16
G05
G00X119.0Y-70.6
M15
G01X120.0Y-70.6
M16
G05
G00X119.0Y-79.4
M15
G01X120.0Y-79.4
M16
G05
G00X101.0Y-52.1
M15
G01X100.0Y-52.1
M16
G05
G00X101.0Y-60.9
M15
G01X100.0Y-60.9
M16
G05
G00X141.0Y-85.6
M15
G01X140.0Y-85.6
M16
G05
G00X141.0Y-94.4
M15
G01X140.0Y-94.4
M16
G05
G00X119.0Y-85.6
M15
G01X120.0Y-85.6
M16
G05
G00X119.0Y-94.4
M15
G01X120.0Y-94.4
M16
G05
G00X101.0Y-85.6
M15
G01X100.0Y-85.6
M16
G05
G00X101.0Y-94.4
M15
G01X100.0Y-94.4
M16
G05
G00X79.8Y-85.6
M15
G01X78.8Y-85.6
M16
G05
G00X79.8Y-94.4
M15
G01X78.8Y-94.4
M16
G05
G00X59.0Y-85.6
M15
G01X60.0Y-85.6
M16
G05
G00X59.0Y-94.4
M15
G01X60.0Y-94.4
M16
G05
G00X141.0Y-70.6
M15
G01X140.0Y-70.6
M16
G05
G00X141.0Y-79.4
M15
G01X140.0Y-79.4
M16
G05
T0
M30
